<?xml version="1.0" encoding="utf-8"?>
<svg viewBox="1836.6665 3943.6271 2422.3196 301.7067" width="2422.3196" height="301.7067"
  xmlns="http://www.w3.org/2000/svg">
  <defs />
  <path
    d="m 14459.4,8215.5 h 406.9 v 1791.2 h 684.4 v 369.9 c -625.8,0 -1153,0 -1775.7,0 v -369.9 h 684.4 z m 3212.4,0 v 2154.9 h -403.9 V 9461 h -1060.5 v 909.4 h -407 V 8215.5 h 407 v 869.4 h 1060.5 v -869.4 z m 1991.5,400.8 h -1211.6 v 487.1 h 1168.4 v 379.1 H 18451.7 V 9982 h 1211.6 v 394.6 h -1615.4 c 0,-720.4 0,-1442.8 0,-2161.1 h 1615.4 z m 2654.3,280.5 c -154.1,-157.2 -363.7,-218.9 -508.6,-218.9 -425.5,0 -573.5,317.6 -576.5,598.1 -3.1,280.6 160.3,619.7 576.5,619.7 144.9,0 305.2,-40.1 459.3,-188.1 l 376.1,369.9 c -243.5,237.4 -524.1,345.3 -835.4,345.3 -810.8,0 -1183.9,-588.8 -1180.8,-1143.7 3.1,-585.8 333,-1119.1 1180.8,-1119.1 326.8,0 622.7,95.6 866.3,336 z m 2238.2,-681.3 h 653.6 l -964.9,2158 h -616.6 l -968,-2158 h 647.3 l 141.9,354.5 h 964.9 z m -348.3,866.3 h -551.9 l 277.5,687.5 z m 2978,-866.3 h 604.3 v 2158 h -635.1 l -567.3,-730.6 -567.2,730.6 H 25382 v -2158 h 604.3 V 9498 l 539.5,-650.5 h 107.9 l 551.8,653.5 z m 2768.4,514.8 h -1125.2 v 326.8 h 1020.4 v 496.4 h -1020.4 v 308.2 h 1082.1 v 511.8 h -1683.3 v -2158 h 1726.4 z m 345.3,1643.2 v -2158 h 1643.2 v 517.9 h -1032.8 v 1640.1 h -610.4"
    transform="matrix(0.1333333104848862, 0, 0, -0.1333333104848862, -1.1368683772161603e-13, 5333.333496093751)" />
</svg>