<svg xmlns="http://www.w3.org/2000/svg" version="1.1" xmlns:xlink="http://www.w3.org/1999/xlink" xmlns:svgjs="http://svgjs.dev/svgjs" width="3332.4575" height="2621.2535"><svg viewBox="1002.0616 1088.2403 3332.4575 2621.2535" width="3332.4575" height="2621.2535" xmlns="http://www.w3.org/2000/svg">
  <path d="m 29202,25420.4 c 784.9,-650.2 956,-1691.5 1138.2,-2802 139.4,-849.7 286.4,-1745.6 773.6,-2479.7 41.1,3.9 82.8,5.9 124.9,5.9 630.3,0 1155.3,-450.8 1270.2,-1047.6 -196,-119.6 -426.4,-188.5 -672.8,-188.5 -273.7,0 -527.6,85.1 -736.6,230.2 l -13.4,-14.3 c -48.8,45.9 -95.8,92.6 -141,139.9 -46.6,44.3 -89.8,92.1 -129.4,142.8 -1221.6,1420.2 -1131.2,3145.2 -1743,4177.6 99.1,-465.5 90.4,-771.4 90.4,-774.2 l -0.3,-21.9 -3.5,-18.6 c -22.1,-119.9 -41.6,-242.7 -58.7,-367.9 l -0.1,0.2 c 0,0 -715.5,-2356.3 174.6,-5030.5 0,0 -85.5,850.3 -74,1726.2 217.5,-1148 630.4,-2247.5 1264.6,-3077.9 -317.1,-1138 -561.8,-2523.9 -366.9,-3693.1 l 24.7,-148.2 h -934.5 -45.8 -829.4 c 79.6,382.6 399.5,677.1 794.8,718.5 -1.9,1330.3 244.6,2703.2 -765.1,3775.5 -697.3,492.6 -1260.1,958.1 -1713.1,1382.3 v 0 c -87.9,82.3 -171.6,163 -251.4,242.1 -430.8,442.1 -1309.7,1468 -1785.8,2896.6 0,0 165.4,-1941.1 1548.1,-3582.7 154.9,-703.3 396.4,-1364.1 737,-1928.1 -423.3,-1057.7 -804.8,-2351.9 -771.7,-3504.2 h -1621.3 c 124.9,275.4 381.4,472.8 681.3,521.8 l 20.7,3.8 c 99,934.6 327.8,1877.4 145.2,2765.7 230,-292.8 282.4,-635 282.4,-635 -68,1360.3 -1034.9,1962.1 -1037.4,1963.6 -1281.7,1176 -1989.7,2157.6 -2374.9,2833 776.5,69.9 1284,370.4 1284,370.4 -729.3,-169.6 -1988.6,-40 -1998,-39 -546.3,62.2 -1022.5,147.5 -1356.3,215.8 250.9,528.9 664.3,895.7 664.3,895.7 -953.4,-306.4 -1227,-1208.4 -1227,-1208.4 -74,-202 -87,-366.8 -89.1,-433.1 802,-2629.5 382.1,-6614.8 307.4,-7254.3 h -338 -392.3 -317.1 -869 c 115.8,405.8 503.6,688.7 941.1,656.7 19.9,-1.5 39.7,-3.6 59.2,-6.3 l 3.3,22.3 8.1,57.8 c 3.5,26.6 7,53.1 10.2,79.7 2.7,22.1 5.4,44.2 7.9,66.3 151.8,1340 -83,2802.8 -560.9,4165.1 h 0.1 l -0.1,0.2 c -83.4,237.6 -174.2,472 -271.5,702.4 -504.5,1756.2 122.8,3628.3 122.8,3628.3 -1147.5,-1029.3 -589.1,-3225.5 -579.1,-3264.1 263.6,-2402.1 -211,-5288.9 -360.8,-6108.4 H 15308 c 115.9,405.8 503.7,688.7 941.1,656.7 42.4,-3.1 83.9,-9.1 124.3,-17.7 598.8,2810.5 -1062.7,7926 -3280.4,10061.5 0,0 535.2,-624.5 919.6,-1471.8 -3780.5,1320.8 -3833.6,5053.1 -3677.1,6616 709.9,-353.2 799.4,-1041.3 799.4,-1041.3 -17,1140.7 -753.9,1413.2 -753.9,1413.2 -345.9,-17.5 -2526.3,614.6 -2751.36,814.7 l -54.82,49.3 -17.75,72.2 c -339.14,1380.9 1496.76,1499.7 1822.38,1509.9 1061.35,425.6 1841.35,526 2414.45,450.5 -136.7,-399.8 -156.4,-743.2 -156.4,-743.2 309.9,795.8 805.3,1125.6 821,1135.9 185.3,98 396.6,153.5 620.8,153.5 94.7,0 187,-9.9 276.1,-28.7 7.4,-56.8 11.2,-114.7 11.2,-173.5 0,-372.2 -152.9,-708.7 -399.4,-950.1 362.3,-432.8 404.2,-930.4 404.5,-933.6 l 1.7,-16.5 -0.7,-15.6 c 0,0 -484.2,-4287.2 2137.6,-5751.3 0,0 -699.2,644 -1090.1,1716.2 568.5,-465.7 1201.9,-399.5 1449.9,-348.9 588.9,1401.2 1962.2,2103.4 2680.7,2385.5 -226.1,-963 -61.4,-1897.3 -61.4,-1897.3 403.8,3979.9 4934.8,4921.2 7231.7,1586.4 687.6,-300.5 1237.8,-658.1 1678.1,-1039.4 -545.3,-154.6 -959.1,-325.6 -959.1,-325.6 1450.6,200 2710.5,-592.6 2761.9,-625.4" id="SvgjsPath1009" transform="matrix(0.1333333104848862, 0, 0, -0.1333333104848862, -1.1368683772161603e-13, 5333.333496093751)"></path>
</svg><style>@media (prefers-color-scheme: light) { :root { filter: none; } }
@media (prefers-color-scheme: dark) { :root { filter: invert(100%); } }
</style></svg>