<svg xmlns="http://www.w3.org/2000/svg" version="1.1" xmlns:xlink="http://www.w3.org/1999/xlink" width="513.4760577716804" height="200" viewBox="-3.009999990463257 4.489999771118164 112.31000518798828 37.6400032043457"><path d="M38.42 18.79L38.42 18.79Q38.42 21.54 36.52 23.50L36.52 23.50Q35.08 25.02 32.58 26.54L32.58 26.54Q31.41 27.25 28.34 29.14L28.34 29.14Q25.76 30.76 23.55 31.91L23.55 31.91Q22.01 32.73 16.93 35.47L16.93 35.47Q16.05 35.94 14.28 36.91L14.28 36.91Q14.00 37.23 13.50 37.77L13.50 37.77Q11.23 38.32 6.21 42.11L6.21 42.11L5.12 42.11Q4.53 41.58 4.53 40.72L4.53 40.72Q4.53 39.47 8.93 37.13L8.93 37.13Q10.53 36.33 14.65 34.18L14.65 34.18Q15.55 33.67 18.16 32.21L18.16 32.21Q26.56 27.64 32.21 24.26L32.21 24.26Q33.52 23.50 34.80 21.78L34.80 21.78Q36.15 19.98 36.15 18.54L36.15 18.54Q36.15 18.26 35.08 16.45L35.08 16.45Q32.79 12.54 25.12 10.41L25.12 10.41Q19.12 8.75 13.07 8.75L13.07 8.75Q12.91 8.75 8.50 8.96L8.50 8.96Q8.03 12.13 7.27 18.69L7.27 18.69Q6.78 22.93 6.78 23.63L6.78 23.63L6.78 30.49Q6.78 30.92 7.19 31.17L7.19 31.17Q7.32 32.13 7.32 33.05L7.32 33.05L7.29 34.77Q7.11 35.08 6.56 35.08L6.56 35.08Q5.49 35.08 4.92 31.72L4.92 31.72Q4.53 29.49 4.53 27.44L4.53 27.44Q4.53 25.31 5.23 18.50L5.23 18.50Q6.00 11.09 6.54 10.33L6.54 10.33L6.54 9.69Q6.39 9.47 6.19 9.47L6.19 9.47Q4.69 9.47 1.93 10.29L1.93 10.29Q-1.37 11.27-1.37 12.30L-1.37 12.30Q-1.37 12.73-0.78 13.07L-0.78 13.07L-0.78 14.00Q-3.01 12.89-3.01 11.54L-3.01 11.54Q-3.01 8.95 4.10 7.50L4.10 7.50Q9.06 6.50 13.59 6.50L13.59 6.50Q26.58 6.50 34.51 12.38L34.51 12.38Q35.63 13.18 36.97 15.31L36.97 15.31Q38.42 17.58 38.42 18.79ZM52.81 39.06L52.81 39.94Q52.40 40.51 51.91 40.51L51.91 40.51Q51.60 40.51 49.80 38.63L49.80 38.63Q48.01 36.74 47.40 36.74L47.40 36.74Q47.40 36.74 47.40 36.74L47.40 36.74Q47.40 36.78 43.14 38.38L43.14 38.38Q38.79 40 37.60 40L37.60 40Q36.62 40 35.43 39.04Q34.24 38.09 34.24 37.25L34.24 37.25Q34.24 35.08 38.98 32.19L38.98 32.19Q43.44 29.45 45.78 29.45L45.78 29.45Q46.76 29.45 47.54 30.57L47.54 30.57L47.54 31.41Q47.15 31.97 46.64 31.97L46.64 31.97Q46.54 31.97 45.97 31.72Q45.39 31.46 45.27 31.46L45.27 31.46Q44.49 31.46 41.70 33.07L41.70 33.07Q39.04 34.57 38.14 35.31L38.14 35.31Q37.25 36.09 36.99 37.09L36.99 37.09Q37.68 37.73 38.61 37.73L38.61 37.73Q39.10 37.73 43.32 36.11L43.32 36.11Q47.52 34.47 48.40 34.47L48.40 34.47Q49.69 34.47 50.25 35.12L50.25 35.12Q50.39 35.27 51.25 36.88L51.25 36.88Q51.89 38.09 52.81 39.06L52.81 39.06ZM71.91 29.45L71.91 29.45Q71.91 29.86 71.50 34.12L71.50 34.12Q71.15 37.66 70.64 41.82L70.64 41.82Q70.61 42.13 70.02 42.13L70.02 42.13Q69.26 42.13 68.77 40.21L68.77 40.21Q68.40 38.75 68.40 37.62L68.40 37.62Q68.40 37.19 68.90 34.53Q69.39 31.88 69.39 31.46L69.39 31.46Q69.39 30.31 68.77 30.31L68.77 30.31Q67.97 30.31 65.35 31.70L65.35 31.70Q63.09 32.91 62.05 33.67L62.05 33.67Q60.08 35.12 57.58 38.03L57.58 38.03Q57.17 38.50 55.98 39.82L55.98 39.82Q55.51 40.31 54.12 40.33L54.12 40.33L54.12 39.02Q54.12 38.11 57.71 34.98L57.71 34.98Q60.59 32.48 63.73 30.45L63.73 30.45Q68.14 27.58 70.29 27.58L70.29 27.58Q70.86 27.58 71.39 28.20Q71.91 28.83 71.91 29.45ZM81.00 21.05L81.00 21.05L81.02 21.13Q81.02 21.89 79.41 22.99L79.41 22.99Q78.95 22.85 77.50 21.39L77.50 21.39Q78.09 19.98 78.77 19.98L78.77 19.98Q79.41 19.98 81.00 21.05ZM79.16 35.98L79.16 35.98Q78.93 39.14 78.93 39.65L78.93 39.65Q77.99 40.18 77.25 40.18L77.25 40.18Q76.93 39.28 76.93 37.95L76.93 37.95Q76.93 30.57 78.77 30.12L78.77 30.12Q79.41 30.41 79.47 31.11L79.47 31.11Q79.45 30.86 79.41 30.84L79.41 30.84Q79.43 31.05 79.43 31.37L79.43 31.37Q79.43 32.75 79.16 35.98ZM102.36 38.96L102.36 38.96Q101.64 39.82 100.49 39.82L100.49 39.82L93.57 39.82Q91.17 39.82 88.22 39.10L88.22 39.10Q84.36 38.16 83.85 36.74L83.85 36.74Q83.28 35.14 83.28 33.67L83.28 33.67Q83.28 30.72 85.82 29.14L85.82 29.14Q87.97 27.77 91.05 27.77L91.05 27.77Q93.71 27.77 95.27 28.92Q96.84 30.06 96.84 32.03L96.84 32.03Q96.84 33.13 93.09 34.43L93.09 34.43Q89.98 35.55 88.57 35.55L88.57 35.55Q88.40 35.55 88.26 35.53L88.26 35.53Q88.26 35.80 87.83 36.19L87.83 36.19Q88.07 36.58 90.12 37.09L90.12 37.09Q91.95 37.56 92.73 37.56L92.73 37.56L98.95 37.56Q98.95 37.56 98.95 37.56L98.95 37.56Q98.95 37.58 101.29 37.91L101.29 37.91Q102.03 38.38 102.36 38.96ZM94.32 31.17L94.32 31.17Q93.22 30.06 90.80 30.06L90.80 30.06Q89.10 30.06 87.66 30.72L87.66 30.72Q85.78 31.58 85.78 33.05L85.78 33.05Q85.78 33.57 86.13 33.79L86.13 33.79L87.38 33.79Q88.05 33.79 90.98 32.68Q93.91 31.56 94.32 31.17ZM109.30 6.60L109.30 6.60L108.18 31.29Q108.09 31.37 108.09 31.76L108.09 31.76Q108.09 32.15 108.18 32.83L108.18 32.83Q108.40 34.67 109.20 39.79L109.20 39.79Q109.16 39.96 108.54 40.18L108.54 40.18Q108.42 40.20 108.32 40.20L108.32 40.20Q106.27 40.20 105.66 35.47L105.66 35.47Q105.64 35.37 105.64 35.08L105.64 35.08Q105.64 34.16 105.74 31.31L105.74 31.31Q105.88 27.64 106.07 23.63L106.07 23.63Q106.13 22.11 106.52 17.97L106.52 17.97Q106.89 14.18 106.89 12.34L106.89 12.34Q106.89 6.74 107.64 4.51L107.64 4.51L107.93 4.49Q107.99 4.49 108.03 4.49L108.03 4.49Q108.69 4.49 108.93 5.23L108.93 5.23Q109.10 5.72 109.30 6.60Z" ></path></svg>